<svg width="78" height="78" viewBox="0 0 78 78" fill="none" xmlns="http://www.w3.org/2000/svg">
<path d="M22.75 39C22.75 37.2051 24.2051 35.75 26 35.75H52C53.7949 35.75 55.25 37.2051 55.25 39C55.25 40.7949 53.7949 42.25 52 42.25H26C24.2051 42.25 22.75 40.7949 22.75 39Z" fill="#E8562E"/>
<path d="M26 52C24.2051 52 22.75 53.4551 22.75 55.25C22.75 57.0449 24.2051 58.5 26 58.5H52C53.7949 58.5 55.25 57.0449 55.25 55.25C55.25 53.4551 53.7949 52 52 52H26Z" fill="#E8562E"/>
<path fill-rule="evenodd" clip-rule="evenodd" d="M22.75 3.25C15.5703 3.25 9.75 9.0703 9.75 16.25V61.75C9.75 68.9297 15.5703 74.75 22.75 74.75H55.25C62.4297 74.75 68.25 68.9297 68.25 61.75V29.53C68.25 26.4888 67.1838 23.5439 65.2369 21.2076L54.1702 7.9276C51.7003 4.9637 48.0415 3.25 44.1833 3.25H22.75ZM16.25 16.25C16.25 12.6601 19.1601 9.75 22.75 9.75H42.25V19.5C42.25 26.6797 48.0703 32.5 55.25 32.5H61.75V61.75C61.75 65.3398 58.8399 68.25 55.25 68.25H22.75C19.1601 68.25 16.25 65.3398 16.25 61.75V16.25ZM60.708 26C60.5666 25.7814 60.4116 25.5706 60.2434 25.3688L49.1768 12.0888C49.0414 11.9264 48.899 11.7715 48.75 11.6244V19.5C48.75 23.0899 51.6601 26 55.25 26H60.708Z" fill="#E8562E"/>
</svg>
