<svg width="78" height="78" viewBox="0 0 78 78" fill="none" xmlns="http://www.w3.org/2000/svg">
<path d="M19.5 48.75C17.7051 48.75 16.25 47.2949 16.25 45.5C16.25 43.7051 17.7051 42.25 19.5 42.25C21.2949 42.25 22.75 43.7051 22.75 45.5C22.75 47.2949 21.2949 48.75 19.5 48.75Z" fill="#E8562E"/>
<path d="M29.25 45.5C29.25 47.2949 30.7051 48.75 32.5 48.75C34.2949 48.75 35.75 47.2949 35.75 45.5C35.75 43.7051 34.2949 42.25 32.5 42.25C30.7051 42.25 29.25 43.7051 29.25 45.5Z" fill="#E8562E"/>
<path d="M45.5 48.75C43.7051 48.75 42.25 47.2949 42.25 45.5C42.25 43.7051 43.7051 42.25 45.5 42.25C47.2949 42.25 48.75 43.7051 48.75 45.5C48.75 47.2949 47.2949 48.75 45.5 48.75Z" fill="#E8562E"/>
<path fill-rule="evenodd" clip-rule="evenodd" d="M66.5536 43.7061L58.4884 44.7142C58.4961 44.9752 58.5 45.2372 58.5 45.5C58.5 59.8594 46.8594 71.5 32.5 71.5C30.352 71.5 28.2606 71.2388 26.2576 70.745L12.2862 68.9986C8.84996 68.569 6.46189 65.3659 7.0312 61.9501L7.88821 56.808L7.25501 51.7424C6.76118 49.7394 6.5 47.648 6.5 45.5C6.5 31.1406 18.1406 19.5 32.5 19.5C32.8693 19.5 33.2369 19.5077 33.6025 19.523C36.273 11.9387 43.4978 6.5 52 6.5C62.7696 6.5 71.5 15.2304 71.5 26C71.5 27.5907 71.3089 29.141 70.9469 30.6275L70.518 34.058L71.1079 37.5974C71.6013 40.5578 69.5317 43.3338 66.5536 43.7061ZM52 13C59.1797 13 65 18.8203 65 26C65 27.1181 64.8596 28.1988 64.5971 29.2273L64.5466 29.4252L64.0462 33.4281C63.9829 33.9347 63.9933 34.4478 64.0773 34.9514L64.4877 37.4137L57.487 38.2888C55.0629 29.8741 48.5031 23.2115 40.1502 20.6437C42.1915 16.1349 46.7327 13 52 13ZM32.5 26C21.7304 26 13 34.7304 13 45.5C13 47.1747 13.2104 48.7956 13.6045 50.3397L13.655 50.5376L14.3454 56.0606C14.4184 56.6451 14.4064 57.2371 14.3095 57.8182L13.5123 62.6012L27.4624 64.345L27.6603 64.3955C29.2044 64.7896 30.8253 65 32.5 65C43.2696 65 52 56.2696 52 45.5C52 34.7304 43.2696 26 32.5 26Z" fill="#E8562E"/>
</svg>
