<svg width="66" height="66" viewBox="0 0 66 66" fill="none" xmlns="http://www.w3.org/2000/svg">
<path d="M44.9451 28.8967C46.2687 27.6844 46.359 25.6286 45.1467 24.3049C43.9344 22.9813 41.8786 22.891 40.5549 24.1033L28.5557 35.0929L25.4451 32.244C24.1214 31.0317 22.0656 31.122 20.8533 32.4457C19.641 33.7693 19.7313 35.8251 21.0549 37.0374L26.3606 41.8967C27.6029 43.0344 29.5085 43.0344 30.7507 41.8967L44.9451 28.8967Z" fill="#E8562E"/>
<path fill-rule="evenodd" clip-rule="evenodd" d="M33 0.5C15.0507 0.5 0.5 15.0507 0.5 33C0.5 50.9493 15.0507 65.5 33 65.5C50.9493 65.5 65.5 50.9493 65.5 33C65.5 15.0507 50.9493 0.5 33 0.5ZM7 33C7 18.6406 18.6406 7 33 7C47.3594 7 59 18.6406 59 33C59 47.3594 47.3594 59 33 59C18.6406 59 7 47.3594 7 33Z" fill="#E8562E"/>
</svg>
