<svg width="70" height="63" viewBox="0 0 70 63" fill="none" xmlns="http://www.w3.org/2000/svg">
<path d="M22 26.5C23.7949 26.5 25.25 27.9551 25.25 29.75V33H28.5C30.2949 33 31.75 34.4551 31.75 36.25C31.75 38.0449 30.2949 39.5 28.5 39.5H25.25V42.75C25.25 44.5449 23.7949 46 22 46C20.2051 46 18.75 44.5449 18.75 42.75V39.5H15.5C13.7051 39.5 12.25 38.0449 12.25 36.25C12.25 34.4551 13.7051 33 15.5 33H18.75V29.75C18.75 27.9551 20.2051 26.5 22 26.5Z" fill="#E8562E"/>
<path d="M48 26.5C49.7949 26.5 51.25 27.9551 51.25 29.75C51.25 31.5449 49.7949 33 48 33C46.2051 33 44.75 31.5449 44.75 29.75C44.75 27.9551 46.2051 26.5 48 26.5Z" fill="#E8562E"/>
<path d="M51.25 42.75C51.25 40.9551 49.7949 39.5 48 39.5C46.2051 39.5 44.75 40.9551 44.75 42.75C44.75 44.5449 46.2051 46 48 46C49.7949 46 51.25 44.5449 51.25 42.75Z" fill="#E8562E"/>
<path d="M54.5 33C56.2949 33 57.75 34.4551 57.75 36.25C57.75 38.0449 56.2949 39.5 54.5 39.5C52.7051 39.5 51.25 38.0449 51.25 36.25C51.25 34.4551 52.7051 33 54.5 33Z" fill="#E8562E"/>
<path d="M44.75 36.25C44.75 34.4551 43.2949 33 41.5 33C39.7051 33 38.25 34.4551 38.25 36.25C38.25 38.0449 39.7051 39.5 41.5 39.5C43.2949 39.5 44.75 38.0449 44.75 36.25Z" fill="#E8562E"/>
<path fill-rule="evenodd" clip-rule="evenodd" d="M47.9998 3.74991C47.9998 1.95499 46.5446 0.499952 44.7497 0.5C42.9548 0.500048 41.4998 1.95516 41.4998 3.75009C41.4998 4.31335 41.3041 5.23056 40.8124 5.91356C40.44 6.43082 39.7907 7 38.25 7C36.5281 7 34.8878 7.35606 33.5409 8.29241C32.1347 9.27005 31.3911 10.6417 31.0946 11.9892C31.0202 12.3274 30.9729 12.666 30.9484 13.0019C16.8723 11.9313 4.08022 21.527 1.28355 35.5104L0.558542 39.1354C-0.401402 43.9352 0.462101 48.9204 2.98044 53.1176C7.56111 60.7521 16.6975 64.3593 25.2581 61.9134L29.7187 60.639C33.1705 59.6528 36.8295 59.6528 40.2812 60.639L44.7418 61.9134C53.3025 64.3593 62.4389 60.7521 67.0195 53.1176C69.5379 48.9204 70.4014 43.9352 69.4414 39.1355L68.7164 35.5104C66.1023 22.4397 54.7549 13.2026 41.7889 12.9268C43.6475 12.2742 45.0773 11.1145 46.0874 9.71144C47.5456 7.6861 47.9998 5.35332 47.9998 3.74991ZM33.8304 19.7823C34.5633 20.0647 35.3957 20.0822 36.1702 19.7822C36.9435 19.75 37.7158 19.6858 38.4851 19.5897C49.7145 18.186 60.1233 25.6882 62.3427 36.7852L63.0677 40.4102C63.7105 43.6244 63.1323 46.9627 61.4458 49.7734C58.3784 54.8858 52.2602 57.3014 46.5275 55.6635L42.0669 54.3891C37.4481 53.0694 32.5519 53.0694 27.9331 54.3891L23.4725 55.6635C17.7398 57.3014 11.6216 54.8858 8.55415 49.7734C6.86774 46.9627 6.28949 43.6243 6.93232 40.4102L7.65732 36.7852C9.87672 25.6882 20.2855 18.186 31.5149 19.5896C32.2844 19.6858 33.0569 19.75 33.8304 19.7823Z" fill="#E8562E"/>
</svg>
