<svg width="84" height="29" viewBox="0 0 84 29" fill="none" xmlns="http://www.w3.org/2000/svg">
<g clip-path="url(#clip0_174_8235)">
<path d="M35.7463 14.8593C35.7463 18.7458 32.6611 21.6098 28.8749 21.6098C25.0888 21.6098 22.0036 18.7458 22.0036 14.8593C22.0036 10.9454 25.0888 8.10889 28.8749 8.10889C32.6611 8.10889 35.7463 10.9454 35.7463 14.8593ZM32.7383 14.8593C32.7383 12.4306 30.9502 10.7689 28.8749 10.7689C26.7996 10.7689 25.0116 12.4306 25.0116 14.8593C25.0116 17.2637 26.7996 18.9498 28.8749 18.9498C30.9502 18.9498 32.7383 17.2606 32.7383 14.8593Z" fill="#EA4335"/>
<path d="M50.5698 14.8593C50.5698 18.7458 47.4846 21.6098 43.6985 21.6098C39.9123 21.6098 36.8271 18.7458 36.8271 14.8593C36.8271 10.9485 39.9123 8.10889 43.6985 8.10889C47.4846 8.10889 50.5698 10.9454 50.5698 14.8593ZM47.5619 14.8593C47.5619 12.4306 45.7738 10.7689 43.6985 10.7689C41.6232 10.7689 39.8351 12.4306 39.8351 14.8593C39.8351 17.2637 41.6232 18.9498 43.6985 18.9498C45.7738 18.9498 47.5619 17.2606 47.5619 14.8593Z" fill="#FBBC05"/>
<path d="M64.7757 8.51671V20.6358C64.7757 25.6211 61.7925 27.6571 58.2657 27.6571C54.9458 27.6571 52.9477 25.4689 52.1942 23.6793L54.813 22.605C55.2794 23.7037 56.422 25.0002 58.2626 25.0002C60.5201 25.0002 61.9191 23.6276 61.9191 21.0437V20.0728H61.8141C61.1408 20.8915 59.8438 21.6067 58.207 21.6067C54.7822 21.6067 51.6445 18.6667 51.6445 14.8837C51.6445 11.0732 54.7822 8.10889 58.207 8.10889C59.8407 8.10889 61.1377 8.8241 61.8141 9.61845H61.9191V8.51976H64.7757V8.51671ZM62.1322 14.8837C62.1322 12.5067 60.5232 10.7689 58.4757 10.7689C56.4004 10.7689 54.6617 12.5067 54.6617 14.8837C54.6617 17.2363 56.4004 18.9498 58.4757 18.9498C60.5232 18.9498 62.1322 17.2363 62.1322 14.8837Z" fill="#4285F4"/>
<path d="M69.4853 1.41309V21.1957H66.5515V1.41309H69.4853Z" fill="#34A853"/>
<path d="M80.918 17.0807L83.2527 18.6146C82.4992 19.7133 80.6833 21.6063 77.5457 21.6063C73.6545 21.6063 70.7485 18.642 70.7485 14.8559C70.7485 10.8416 73.6792 8.10547 77.2091 8.10547C80.7636 8.10547 82.5023 10.8933 83.0705 12.3998L83.3824 13.1668L74.2258 16.9042C74.9269 18.2585 76.017 18.9494 77.5457 18.9494C79.0774 18.9494 80.1398 18.2068 80.918 17.0807ZM73.7317 14.652L79.8526 12.1472C79.516 11.3042 78.503 10.7168 77.311 10.7168C75.7823 10.7168 73.6545 12.0468 73.7317 14.652Z" fill="#EA4335"/>
<path d="M10.8985 13.1031V10.2392H20.6913C20.787 10.7383 20.8364 11.3287 20.8364 11.9678C20.8364 14.1165 20.2404 16.7735 18.3195 18.6665C16.4511 20.5839 14.0639 21.6065 10.9016 21.6065C5.0401 21.6065 0.111275 16.9013 0.111275 11.1248C0.111275 5.34828 5.0401 0.643066 10.9016 0.643066C14.1442 0.643066 16.4542 1.89698 18.1898 3.53133L16.1392 5.5522C14.8947 4.40176 13.2085 3.50698 10.8985 3.50698C6.61819 3.50698 3.27054 6.90654 3.27054 11.1248C3.27054 15.3431 6.61819 18.7426 10.8985 18.7426C13.6748 18.7426 15.256 17.6439 16.2689 16.6457C17.0904 15.8361 17.6308 14.6796 17.8439 13.1L10.8985 13.1031Z" fill="#4285F4"/>
</g>
<defs>
<clipPath id="clip0_174_8235">
<rect width="84" height="28" fill="white" transform="translate(0 0.5)"/>
</clipPath>
</defs>
</svg>
