<svg width="46" height="39" viewBox="0 0 46 39" fill="none" xmlns="http://www.w3.org/2000/svg">
<path d="M15.6659 8.04167C15.6659 6.89107 14.7331 5.95833 13.5825 5.95833C12.4319 5.95833 11.4992 6.89107 11.4992 8.04167V12.2083C11.4992 13.3589 12.4319 14.2917 13.5825 14.2917C14.7331 14.2917 15.6659 13.3589 15.6659 12.2083V8.04167Z" fill="#E8562E"/>
<path d="M13.5825 15.3333C14.7331 15.3333 15.6659 16.2661 15.6659 17.4167V21.5833C15.6659 22.7339 14.7331 23.6667 13.5825 23.6667C12.4319 23.6667 11.4992 22.7339 11.4992 21.5833V17.4167C11.4992 16.2661 12.4319 15.3333 13.5825 15.3333Z" fill="#E8562E"/>
<path d="M15.6659 26.7917C15.6659 25.6411 14.7331 24.7083 13.5825 24.7083C12.4319 24.7083 11.4992 25.6411 11.4992 26.7917V30.9583C11.4992 32.1089 12.4319 33.0417 13.5825 33.0417C14.7331 33.0417 15.6659 32.1089 15.6659 30.9583V26.7917Z" fill="#E8562E"/>
<path fill-rule="evenodd" clip-rule="evenodd" d="M45.8742 29.9166L45.8742 29.3087C45.8742 28.015 45.573 26.7391 44.9944 25.582L43.1096 21.8124C42.441 20.475 42.5401 18.8819 43.3695 17.6378L44.4746 15.9801C45.3872 14.6113 45.8742 13.0029 45.8742 11.3577V9.08333C45.8742 4.48096 42.1432 0.75 37.5409 0.75H9.15349C4.16788 0.75 0.31045 5.11964 0.928836 10.0667C1.07824 11.262 1.48633 12.4102 2.12472 13.4317L4.53723 17.2917C5.38169 18.6428 5.38169 20.3572 4.53723 21.7083L2.34922 25.2091C1.52145 26.5336 1.08254 28.064 1.08254 29.6258L1.08254 29.9167C1.08254 34.519 4.8135 38.25 9.41587 38.25H37.5409C42.1432 38.25 45.8742 34.519 45.8742 29.9166ZM41.7075 29.3087L41.7075 29.9167C41.7075 32.2178 39.842 34.0833 37.5409 34.0833L9.41587 34.0833C7.11469 34.0833 5.24921 32.2179 5.24921 29.9167V29.6258C5.24921 28.8449 5.46866 28.0797 5.88255 27.4175L8.07056 23.9167C9.75947 21.2144 9.75947 17.7856 8.07056 15.0833L5.65805 11.2233C5.34058 10.7154 5.13763 10.1443 5.06333 9.54994C4.7558 7.08971 6.67412 4.91667 9.15349 4.91667L37.5409 4.91667C39.842 4.91667 41.7075 6.78215 41.7075 9.08333V11.3577C41.7075 12.1803 41.464 12.9845 41.0077 13.6689L39.9027 15.3265C38.2439 17.8147 38.0455 21.001 39.3829 23.6758L41.2676 27.4454C41.5569 28.0239 41.7075 28.6619 41.7075 29.3087Z" fill="#E8562E"/>
</svg>
