<svg width="50" height="51" viewBox="0 0 50 51" fill="none" xmlns="http://www.w3.org/2000/svg">
<path fill-rule="evenodd" clip-rule="evenodd" d="M24.995 0.5C19.9753 0.5 15.9061 5.76724 15.9061 12.2647C15.9061 18.7622 19.9753 24.0294 24.995 24.0294C30.0147 24.0294 34.0839 18.7622 34.0839 12.2647C34.0839 5.76724 30.0147 0.5 24.995 0.5ZM20.4505 12.2647C20.4505 9.01597 22.4852 6.38235 24.995 6.38235C27.5048 6.38235 29.5395 9.01597 29.5395 12.2647C29.5395 15.5134 27.5048 18.1471 24.995 18.1471C22.4852 18.1471 20.4505 15.5134 20.4505 12.2647Z" fill="#E8562E"/>
<path fill-rule="evenodd" clip-rule="evenodd" d="M24.995 50.5C22.4117 50.5 18.687 49.7097 15.8603 48.0282C14.4737 47.2034 12.9859 45.9801 12.1083 44.1497C11.645 43.1835 11.3523 42.0445 11.3619 40.7767C11.3713 39.5211 11.6756 38.3303 12.1737 37.2391C14.4515 32.2492 19.1771 26.9706 24.995 26.9706C30.8129 26.9706 35.5384 32.2492 37.8163 37.2391C38.3144 38.3303 38.6186 39.5211 38.6281 40.7767C38.6377 42.0445 38.345 43.1835 37.8817 44.1497C37.0041 45.9801 35.5163 47.2034 34.1297 48.0282C31.303 49.7097 27.5782 50.5 24.995 50.5ZM16.0862 40.2315C15.9122 40.6127 15.9063 40.802 15.9061 40.8342C15.9059 40.8555 15.9053 40.9139 15.9695 41.0478C16.1499 41.4241 16.6739 42.0384 17.7579 42.6833C19.8725 43.9411 22.9246 44.6176 24.995 44.6176C27.0654 44.6176 30.1175 43.9411 32.2321 42.6833C33.3161 42.0384 33.8401 41.424 34.0205 41.0478C34.0847 40.9139 34.0841 40.8569 34.0839 40.8357C34.0837 40.8035 34.0778 40.6127 33.9038 40.2315C32.1378 36.3629 28.684 32.8529 24.995 32.8529C21.306 32.8529 17.8522 36.3629 16.0862 40.2315Z" fill="#E8562E"/>
<path fill-rule="evenodd" clip-rule="evenodd" d="M3.40884 21.0882C3.40884 16.2151 6.46077 12.2647 10.2255 12.2647C13.9903 12.2647 17.0422 16.2151 17.0422 21.0882C17.0422 25.9613 13.9903 29.9118 10.2255 29.9118C6.46077 29.9118 3.40884 25.9613 3.40884 21.0882ZM10.2255 18.1471C8.97061 18.1471 7.9533 19.4639 7.9533 21.0882C7.9533 22.7126 8.97061 24.0294 10.2255 24.0294C11.4804 24.0294 12.4978 22.7126 12.4978 21.0882C12.4978 19.4639 11.4804 18.1471 10.2255 18.1471Z" fill="#E8562E"/>
<path d="M4.30804 42.9841C3.75011 44.4391 2.38658 45.0332 1.26251 44.311C0.138445 43.5888 -0.320505 41.8238 0.237421 40.3688C1.0722 38.1918 2.33573 36.0061 3.9252 34.3336C5.51529 32.6605 7.55286 31.3824 9.87826 31.3824C11.1332 31.3824 12.1505 32.6992 12.1505 34.3235C12.1505 35.9479 11.1332 37.2647 9.87826 37.2647C8.87625 37.2647 7.81873 37.8175 6.79174 38.8981C5.76413 39.9794 4.8886 41.4701 4.30804 42.9841Z" fill="#E8562E"/>
<path fill-rule="evenodd" clip-rule="evenodd" d="M33.6523 21.0882C33.6523 16.2151 36.7042 12.2647 40.469 12.2647C44.2337 12.2647 47.2857 16.2151 47.2857 21.0882C47.2857 25.9613 44.2337 29.9118 40.469 29.9118C36.7042 29.9118 33.6523 25.9613 33.6523 21.0882ZM40.469 18.1471C39.2141 18.1471 38.1968 19.4639 38.1968 21.0882C38.1968 22.7126 39.2141 24.0294 40.469 24.0294C41.7239 24.0294 42.7412 22.7126 42.7412 21.0882C42.7412 19.4639 41.7239 18.1471 40.469 18.1471Z" fill="#E8562E"/>
<path d="M49.7626 40.3688C50.3205 41.8238 49.8616 43.5888 48.7375 44.311C47.6134 45.0332 46.2499 44.4391 45.692 42.9841C45.1114 41.4701 44.2359 39.9794 43.2083 38.8981C42.1813 37.8175 41.1237 37.2647 40.1217 37.2647C38.8668 37.2647 37.8495 35.9479 37.8495 34.3235C37.8495 32.6992 38.8668 31.3824 40.1217 31.3824C42.4471 31.3824 44.4847 32.6605 46.0748 34.3336C47.6643 36.0061 48.9278 38.1918 49.7626 40.3688Z" fill="#E8562E"/>
</svg>
