<svg width="51" height="51" viewBox="0 0 51 51" fill="none" xmlns="http://www.w3.org/2000/svg">
<path fill-rule="evenodd" clip-rule="evenodd" d="M24.9988 0.501181C11.1923 0.636443 0.109651 11.9384 0.244913 25.7449C0.380174 39.5513 11.6822 50.634 25.4886 50.4988C39.2951 50.3635 50.3778 39.0615 50.2425 25.2551C50.1073 11.4486 38.8053 0.36592 24.9988 0.501181ZM7.40932 24.089L4.78925 25.4312C4.80401 20.6642 6.45305 16.2743 9.20943 12.7989L9.25434 17.3834L7.40932 24.089ZM13.714 8.60201C16.9427 6.39464 20.8387 5.08761 25.0433 5.04642C36.0309 4.93877 45.0798 13.5148 45.6679 24.3788L37.9127 32.2874L36.8984 42.3118C33.6454 44.5713 29.7032 45.9118 25.4441 45.9535C15.7148 46.0489 7.5056 39.3355 5.34467 30.2539L11.2614 27.2227L12.0879 24.2191C11.7796 26.1078 12.6803 28.1199 14.5819 29.0476L19.7126 31.5504L20.324 39.5423C20.6705 44.0702 26.7109 45.3472 28.8603 41.3469L36.9715 26.2509C37.5939 25.0925 37.6842 23.7214 37.219 22.4914L35.2593 17.3103C34.4814 15.2536 32.3428 14.0486 30.1806 14.4488L19.788 16.3723C18.8687 16.5424 18.0243 16.9919 17.3698 17.6594L13.3293 21.7798C12.8844 22.2335 12.5573 22.7492 12.3424 23.2941L13.8058 17.9754L13.714 8.60201ZM42.2746 34.3314L44.6863 31.872C44.0502 33.8134 43.1313 35.6276 41.9777 37.2654L42.2746 34.3314ZM21.7054 27.4651L16.5748 24.9623L20.6152 20.8418L31.0078 18.9183L32.9675 24.0995L24.8563 39.1955L24.2448 31.2036C24.1217 29.5951 23.1553 28.1723 21.7054 27.4651Z" fill="#EB5017"/>
</svg>
