<svg width="50" height="50" viewBox="0 0 50 50" fill="none" xmlns="http://www.w3.org/2000/svg">
<path fill-rule="evenodd" clip-rule="evenodd" d="M14.5834 14.5833C14.5834 8.83033 19.2471 4.16663 25 4.16663C30.753 4.16663 35.4167 8.83033 35.4167 14.5833C35.4167 20.3363 30.753 25 25 25C19.2471 25 14.5834 20.3363 14.5834 14.5833ZM25 8.33329C21.5483 8.33329 18.75 11.1315 18.75 14.5833C18.75 18.0351 21.5483 20.8333 25 20.8333C28.4518 20.8333 31.25 18.0351 31.25 14.5833C31.25 11.1315 28.4518 8.33329 25 8.33329Z" fill="#E8562E"/>
<path fill-rule="evenodd" clip-rule="evenodd" d="M13.6572 45.6612C17.1455 47.1879 21.7907 47.9166 25 47.9166C28.2094 47.9166 32.8546 47.1879 36.3429 45.6612C38.0554 44.9117 39.797 43.839 40.8089 42.2862C41.341 41.4696 41.6775 40.5077 41.6664 39.4337C41.6555 38.3696 41.3054 37.3501 40.7169 36.4016C37.864 31.8033 32.0275 27.0833 25 27.0833C17.9725 27.0833 12.1361 31.8033 9.2832 36.4016C8.69471 37.3501 8.34456 38.3696 8.33364 39.4337C8.32261 40.5077 8.65903 41.4696 9.19119 42.2862C10.2031 43.839 11.9447 44.9117 13.6572 45.6612ZM12.5001 39.4765C12.5016 39.3244 12.5495 39.0404 12.8238 38.5983C15.1616 34.8303 19.8243 31.25 25 31.25C30.1757 31.25 34.8385 34.8303 37.1763 38.5983C37.4506 39.0404 37.4984 39.3244 37.5 39.4765C37.5015 39.6188 37.4649 39.786 37.318 40.0113C36.9718 40.5426 36.1311 41.2056 34.6723 41.8441C31.8179 43.0934 27.7641 43.75 25 43.75C22.2359 43.75 18.1822 43.0934 15.3278 41.8441C13.8689 41.2056 13.0282 40.5426 12.682 40.0114C12.5352 39.786 12.4986 39.6188 12.5001 39.4765Z" fill="#E8562E"/>
<path fill-rule="evenodd" clip-rule="evenodd" d="M42.0969 6.68402C42.1275 6.6976 42.1578 6.71134 42.1876 6.72521C42.2174 6.71134 42.2476 6.69761 42.2782 6.68403C43.2555 6.2511 44.7012 5.97489 46.3021 6.68402C47.3187 7.13436 48.1197 7.87508 48.57 8.86996C49.0058 9.8327 49.0308 10.8488 48.8596 11.7514C48.6266 12.9796 47.9185 13.9754 47.2579 14.6926C46.5765 15.4323 45.7848 16.0481 45.1141 16.5095C43.3455 17.7262 41.0297 17.7262 39.2611 16.5096C38.5903 16.0481 37.7986 15.4323 37.1172 14.6926C36.4566 13.9755 35.7485 12.9796 35.5155 11.7514C35.3443 10.8488 35.3693 9.8327 35.805 8.86996C36.2554 7.87508 37.0564 7.13436 38.073 6.68402C39.6739 5.97488 41.1196 6.25111 42.0969 6.68402ZM40.6734 10.6509C40.6982 10.6699 40.7148 10.6842 40.7223 10.6907C41.1118 11.0762 41.6383 11.2931 42.1876 11.2931C42.7369 11.2931 43.2633 11.0762 43.6529 10.6907C43.6603 10.6841 43.677 10.6698 43.7018 10.6509C43.7648 10.6026 43.8575 10.5416 43.9659 10.4936C44.1567 10.4091 44.3463 10.3748 44.6145 10.4936C44.72 10.5404 44.7622 10.578 44.7715 10.5868L44.775 10.5904C44.775 10.5904 44.7777 10.598 44.7797 10.606C44.7829 10.6185 44.7869 10.6394 44.7894 10.6703C44.7946 10.7333 44.7927 10.8337 44.7659 10.9749C44.7397 11.113 44.6078 11.4196 44.1933 11.8696C43.7996 12.297 43.2811 12.7131 42.7525 13.0767C42.4062 13.3149 41.9689 13.315 41.6226 13.0767C41.094 12.7131 40.5755 12.297 40.1818 11.8696C39.7673 11.4196 39.6354 11.113 39.6092 10.9749C39.5824 10.8337 39.5805 10.7333 39.5856 10.6703C39.5882 10.6394 39.5922 10.6185 39.5953 10.606C39.5973 10.598 39.6 10.5904 39.6 10.5904L39.6036 10.5868C39.6129 10.5779 39.6551 10.5404 39.7606 10.4936C40.0288 10.3748 40.2184 10.4091 40.4093 10.4936C40.5177 10.5416 40.6103 10.6027 40.6734 10.6509Z" fill="#E8562E"/>
</svg>
