<svg width="130" height="24" viewBox="0 0 130 24" fill="none" xmlns="http://www.w3.org/2000/svg">
<g clip-path="url(#clip0_278_25)">
<path d="M37.2089 5.14152L37.223 4.93337H37.4162V2.75281V2.61044L37.2836 2.55882C36.8721 2.39877 36.3791 2.33824 35.871 2.33824C33.966 2.33824 32.4511 3.16815 31.6025 4.62846V2.78208V2.57393H31.3943H28.9526H28.7445V2.78208V17.6932V17.9014H28.9526H31.3943H31.6025V17.6932V10.0609C31.6025 8.33688 32.0101 7.09041 32.738 6.27649C33.4623 5.46649 34.5325 5.05294 35.9295 5.05294C36.2948 5.05294 36.6397 5.07394 37 5.11659V5.14152H37.2081H37.2089Z" fill="#232323" stroke="#232323" stroke-width="0.416298"/>
<path d="M52.7624 17.9023H52.9706V17.6941V2.99112V2.78297V2.7822H52.7624V2.57482H50.3207H50.1126V2.78297V4.71182C49.0618 3.13096 47.0979 2.16197 44.8844 2.16197C40.7076 2.16197 37.6701 5.54787 37.6701 10.2381C37.6701 14.9284 40.7076 18.3151 44.8844 18.3151C47.0979 18.3151 49.0618 17.3461 50.1126 15.7652V17.6941V17.9023H50.3207H52.7624ZM48.8846 6.36676L48.8846 6.36678L48.8868 6.36923C49.7765 7.35537 50.2289 8.65806 50.2289 10.2374C50.2289 11.8167 49.7765 13.1194 48.8868 14.1055L48.8868 14.1055L48.8846 14.108C48.0263 15.0903 46.8646 15.5989 45.4366 15.5989C44.0099 15.5989 42.8468 15.091 41.9583 14.1067C41.0966 13.1199 40.6444 11.8162 40.6444 10.2374C40.6444 8.65858 41.0966 7.35486 41.9583 6.368C42.8468 5.38374 44.0099 4.8759 45.4366 4.8759C46.8646 4.8759 48.0263 5.3845 48.8846 6.36676Z" fill="#232323" stroke="#232323" stroke-width="0.416298"/>
<path d="M68.8961 2.78223V2.57408H68.688H68.6864H66.2448H66.0366V2.78223V11.2395C66.0366 12.4202 65.5806 13.402 64.8122 14.0905C64.042 14.7807 62.9457 15.1868 61.6518 15.1868C60.5401 15.1868 59.7667 14.8884 59.2639 14.2887C58.7542 13.6807 58.4878 12.7231 58.4878 11.3281V2.78223V2.57408H58.2797H55.838H55.6299V2.78223V11.9173C55.6299 13.8228 56.1259 15.3236 57.0694 16.3497C58.0152 17.3783 59.3846 17.9015 61.0711 17.9015C63.2252 17.9015 65.0241 17.0742 66.0374 15.5542V16.2492C66.0374 18.0312 65.6086 19.3368 64.8372 20.1952C64.0692 21.05 62.9332 21.4928 61.4492 21.4928C59.7515 21.4928 58.1171 20.8904 56.9676 19.8382L56.804 19.6885L56.6649 19.8612L55.2407 21.6297L55.1255 21.7727L55.2531 21.9048C56.6687 23.3707 58.9965 24.2083 61.5078 24.2083C63.8172 24.2083 65.6733 23.517 66.9503 22.1574C68.2255 20.7997 68.8961 18.8044 68.8961 16.2499V2.78223Z" fill="#232323" stroke="#232323" stroke-width="0.416298"/>
<path d="M84.5834 17.902H84.7916V17.6939V17.6931V8.14519C84.7916 6.26974 84.3104 4.76936 83.3748 3.73594C82.4364 2.69944 81.0666 2.16099 79.3504 2.16099C77.2056 2.16099 75.4332 2.98182 74.4426 4.49093V2.78199V2.57384H74.2345H71.7928H71.5846V2.78199V17.6939V17.902H71.7928H74.2345H74.4426V17.6939V8.82378C74.4426 7.62684 74.8927 6.64525 75.6497 5.96117C76.4087 5.27536 77.4901 4.87647 78.7696 4.87647C79.8963 4.87647 80.6689 5.17521 81.1678 5.77407C81.6739 6.38167 81.9336 7.33901 81.9336 8.7352V17.6939V17.902H82.1418H84.5834Z" fill="#232323" stroke="#232323" stroke-width="0.416298"/>
<path d="M102.083 17.9023H102.292V17.6941V2.99112V2.78297V2.7822H102.083V2.57482H99.6417H99.4336V2.78297V4.71182C98.3828 3.13096 96.4189 2.16197 94.2054 2.16197C90.0286 2.16197 86.9911 5.54787 86.9911 10.2381C86.9911 14.9284 90.0286 18.3151 94.2054 18.3151C96.4189 18.3151 98.3828 17.3461 99.4336 15.7652V17.6941V17.9023H99.6417H102.083ZM98.2056 6.36676L98.2056 6.36678L98.2078 6.36923C99.0975 7.35537 99.5499 8.65806 99.5499 10.2374C99.5499 11.8167 99.0975 13.1194 98.2078 14.1055L98.2078 14.1055L98.2056 14.108C97.3473 15.0903 96.1856 15.5989 94.7576 15.5989C93.3309 15.5989 92.1678 15.091 91.2793 14.1067C90.4175 13.1199 89.9654 11.8162 89.9654 10.2374C89.9654 8.65858 90.4175 7.35486 91.2793 6.368C92.1678 5.38374 93.3309 4.8759 94.7576 4.8759C96.1856 4.8759 97.3473 5.3845 98.2056 6.36676Z" fill="#232323" stroke="#232323" stroke-width="0.416298"/>
<path d="M113.376 2.78223V2.57408H113.168H110.726H110.725H110.517V2.78223V12.1245C110.517 13.9441 111.168 15.4962 112.322 16.5927C113.474 17.6884 115.113 18.3151 117.062 18.3151C119.012 18.3151 120.65 17.6884 121.803 16.5927C122.956 15.4962 123.608 13.9441 123.608 12.1245V2.78223V2.57408H123.4H120.958H120.75V2.78223V11.9766C120.75 13.1747 120.406 14.0725 119.792 14.6715C119.177 15.2713 118.262 15.5997 117.063 15.5997C115.864 15.5997 114.949 15.2713 114.334 14.6715C113.72 14.0725 113.376 13.1747 113.376 11.9766V2.78223Z" fill="#232323" stroke="#232323" stroke-width="0.416298"/>
<path d="M126.672 2.57408H126.464V2.78223V17.6941V17.9023H126.672H129.114H129.322V17.6941V2.78223V2.57408H129.114H126.672Z" fill="#232323" stroke="#232323" stroke-width="0.416298"/>
<path d="M18.0291 12.8569L16.7204 11.5483C16.6873 11.5151 16.6989 11.4597 16.7412 11.4412C17.2034 11.2417 17.6355 10.9844 18.0291 10.6802C18.17 10.5708 18.3056 10.456 18.4358 10.3351C18.8155 9.98235 19.149 9.58105 19.4263 9.14047C19.4271 9.13893 19.4278 9.13816 19.4286 9.13662C19.5965 8.86935 19.7444 8.58744 19.8692 8.29398C20.1704 7.58535 20.3383 6.80664 20.3413 5.98864C20.3413 5.98864 20.3413 5.98787 20.3413 5.9871C20.3413 5.9794 20.3413 5.97169 20.3413 5.96399C20.3413 5.14676 20.1773 4.36882 19.88 3.65942C19.7806 3.42142 19.6658 3.19112 19.5372 2.97006C19.5372 2.96852 19.5357 2.96775 19.5357 2.96698C18.9572 1.97336 18.0999 1.16307 17.0717 0.641612C17.0678 0.639302 17.0632 0.636991 17.0593 0.63545C16.2637 0.234154 14.9188 0.00616194 13.9684 0C13.9553 0 14.3904 0 14.3774 0C14.3643 0 14.3519 0 14.3388 0H1.77695C0.795661 0 0 0.795661 0 1.77695V14.4474C0 14.858 0.0415931 15.2593 0.120928 15.6467C0.120928 15.6475 0.120928 15.6483 0.120928 15.6498C0.268815 16.3723 0.547643 17.0478 0.931224 17.6493C0.931224 17.6509 0.932764 17.6517 0.933534 17.6532C1.57592 18.6599 2.51253 19.461 3.62168 19.9347C3.62553 19.9362 3.62938 19.9377 3.63324 19.9393C3.64171 19.9431 3.65095 19.947 3.65942 19.9508C4.23017 20.1904 4.8456 20.3429 5.49029 20.3937C5.64665 20.406 5.80378 20.4122 5.96322 20.4122C6.78584 20.4122 7.56918 20.2458 8.28165 19.9447C8.78462 19.7321 9.25293 19.4525 9.67502 19.1167C9.67579 19.1167 9.67656 19.1159 9.67733 19.1151C9.68503 19.109 9.69351 19.1028 9.70121 19.0959C9.70352 19.0943 9.70583 19.092 9.70814 19.0905C10.2542 18.6491 10.721 18.1138 11.083 17.5084C11.596 16.6511 11.9003 15.6552 11.9249 14.5899V14.5876C11.9257 14.5414 11.9264 14.4952 11.9264 14.449C11.9264 14.4028 11.9264 14.3566 11.9249 14.3103V12.1806C11.9249 12.089 12.0358 12.0428 12.1005 12.1075L17.5015 17.5084L18.7654 18.7724C19.3485 19.3554 20.3444 18.9426 20.3444 18.1184V15.8362C20.3444 15.4141 20.1765 15.009 19.8777 14.7101L18.026 12.8584L18.0291 12.8569ZM14.375 8.29398H8.68603C8.46343 8.29398 8.28242 8.47421 8.28242 8.69758V14.4975V14.4983C8.20925 16.125 6.57248 17.1787 5.06974 16.5494C4.2579 16.2098 3.70872 15.4264 3.65942 14.5399V4.01528C3.65942 3.82118 3.81732 3.66328 4.01143 3.66328L8.87474 3.66019C8.87474 3.66019 8.87474 3.66174 8.87397 3.66251C9.89454 3.66251 10.9482 3.66251 11.9264 3.66251C12.8399 3.66251 13.688 3.66251 14.3812 3.66405C15.6359 3.66559 16.6711 4.71004 16.6758 5.96091C16.6804 7.24337 15.6629 8.27626 14.375 8.29475V8.29398Z" fill="#F56630"/>
</g>
<defs>
<clipPath id="clip0_278_25">
<rect width="129.114" height="24" fill="white"/>
</clipPath>
</defs>
</svg>
