<svg width="78" height="80" viewBox="0 0 78 80" fill="none" xmlns="http://www.w3.org/2000/svg">
<path fill-rule="evenodd" clip-rule="evenodd" d="M12.3229 19.0476C12.3229 8.52791 21.5182 0 32.8611 0C44.2041 0 53.3994 8.52791 53.3994 19.0476C53.3994 29.5673 44.2041 38.0952 32.8611 38.0952C21.5182 38.0952 12.3229 29.5673 12.3229 19.0476ZM32.8611 7.61905C26.0554 7.61905 20.5382 12.7358 20.5382 19.0476C20.5382 25.3594 26.0554 30.4762 32.8611 30.4762C39.6669 30.4762 45.1841 25.3594 45.1841 19.0476C45.1841 12.7358 39.6669 7.61905 32.8611 7.61905Z" fill="#E8562E"/>
<path fill-rule="evenodd" clip-rule="evenodd" d="M10.4968 75.8757C17.3746 78.6674 26.5333 80 32.8611 80C39.189 80 48.3477 78.6674 55.2255 75.8757C58.602 74.5052 62.0359 72.5437 64.0309 69.7044C65.0802 68.2112 65.7435 66.4522 65.7218 64.4884C65.7002 62.5426 65.0099 60.6784 63.8496 58.944C58.2245 50.5357 46.7171 41.9048 32.8611 41.9048C19.0052 41.9048 7.49775 50.5357 1.87274 58.944C0.712426 60.6784 0.0220612 62.5426 0.000518708 64.4884C-0.0212228 66.4522 0.642093 68.2112 1.69133 69.7044C3.68641 72.5437 7.12031 74.5052 10.4968 75.8757ZM8.21537 64.5667C8.21845 64.2885 8.31271 63.7693 8.85358 62.9608C13.463 56.0706 22.6564 49.5238 32.8611 49.5238C43.0659 49.5238 52.2593 56.0706 56.8687 62.9608C57.4096 63.7693 57.5038 64.2885 57.5069 64.5666C57.5098 64.8268 57.4377 65.1325 57.1481 65.5446C56.4655 66.5161 54.808 67.7284 51.9316 68.8959C46.3036 71.1803 38.311 72.381 32.8611 72.381C27.4113 72.381 19.4186 71.1803 13.7907 68.8959C10.9143 67.7284 9.25673 66.5161 8.57415 65.5446C8.28455 65.1325 8.21249 64.8268 8.21537 64.5667Z" fill="#E8562E"/>
<path d="M76.7969 8.40797C78.401 6.92026 78.401 4.50821 76.7969 3.02049C75.1928 1.53278 72.592 1.53277 70.9878 3.02048L63.0242 10.4061L61.8663 9.33229C60.2621 7.84458 57.6613 7.84458 56.0572 9.33229C54.4531 10.82 54.4531 13.2321 56.0572 14.7198L60.1196 18.4874C61.7238 19.9751 64.3246 19.9751 65.9287 18.4874L76.7969 8.40797Z" fill="#E8562E"/>
</svg>
