<svg width="78" height="78" viewBox="0 0 78 78" fill="none" xmlns="http://www.w3.org/2000/svg">
<path d="M19.5 26C21.2949 26 22.75 27.4551 22.75 29.25C22.75 31.0449 21.2949 32.5 19.5 32.5C17.7051 32.5 16.25 31.0449 16.25 29.25C16.25 27.4551 17.7051 26 19.5 26Z" fill="#E8562E"/>
<path d="M30.875 50.375C30.875 48.5801 32.3301 47.125 34.125 47.125H43.875C45.6699 47.125 47.125 48.5801 47.125 50.375C47.125 52.1699 45.6699 53.625 43.875 53.625H34.125C32.3301 53.625 30.875 52.1699 30.875 50.375Z" fill="#E8562E"/>
<path d="M34.125 56.875C32.3301 56.875 30.875 58.3301 30.875 60.125C30.875 61.9199 32.3301 63.375 34.125 63.375H40.625C42.4199 63.375 43.875 61.9199 43.875 60.125C43.875 58.3301 42.4199 56.875 40.625 56.875H34.125Z" fill="#E8562E"/>
<path fill-rule="evenodd" clip-rule="evenodd" d="M22.75 13C22.75 9.41015 25.6601 6.5 29.25 6.5H48.75C52.3399 6.5 55.25 9.41015 55.25 13V16.25H58.5C65.6797 16.25 71.5 22.0703 71.5 29.25V45.5C71.5 52.6797 65.6797 58.5 58.5 58.5H55.25V65C55.25 68.5898 52.3399 71.5 48.75 71.5H29.25C25.6601 71.5 22.75 68.5898 22.75 65V58.5H19.5C12.3203 58.5 6.5 52.6797 6.5 45.5V29.25C6.5 22.0703 12.3203 16.25 19.5 16.25H22.75V13ZM48.75 13V16.25H29.25V13H48.75ZM13 29.25C13 25.6601 15.9102 22.75 19.5 22.75H58.5C62.0899 22.75 65 25.6601 65 29.25V45.5C65 49.0899 62.0898 52 58.5 52H55.25V45.5C55.25 41.9101 52.3399 39 48.75 39H29.25C25.6601 39 22.75 41.9101 22.75 45.5V52H19.5C15.9101 52 13 49.0899 13 45.5V29.25ZM29.25 45.5H48.75V65H29.25V45.5Z" fill="#E8562E"/>
</svg>
